# xmcd
#
# Track frame offsets:
# 150
# 14062
# 27935
# 44355
# 58875
# 74485
# 86632
# 104670
# 118857
# 130875
# 155737
# 175495
# 192445
# 212180
# 240265
# 253570
#
# Disc length: 3707 seconds
#
# Revision: 1
# Processed by: cddbd v1.4PL0 Copyright (c) Steve Scherf et al.
# Submitted via: Axialis_AX_CDPlayer 2.6
#
DISCID=f40e7910
DTITLE=Joe Williams - Joe William's Finest Hour
DYEAR=1900
DGENRE=
TTITLE0=All Right Okay You Win
TTITLE1=Teach Me Tonight
TTITLE2=Smack Dab In The Middle
TTITLE3=Roll 'Em Pete
TTITLE4=Jimmy's Blues
TTITLE5=I Want A Little Girl
TTITLE6=Party Blues
TTITLE7=Louella
TTITLE8=I Don't Like You No More
TTITLE9=The Comeback
TTITLE10=Too Good To Be True
TTITLE11=Every Day (I Fall In Love)
TTITLE12=Winter Wonderland
TTITLE13=Is You Is Or Is You Ain't My Baby
TTITLE14=Now You Tell Me
TTITLE15=Every Day I Have The Blues
EXTD=
EXTT0=
EXTT1=
EXTT2=
EXTT3=
EXTT4=
EXTT5=
EXTT6=
EXTT7=
EXTT8=
EXTT9=
EXTT10=
EXTT11=
EXTT12=
EXTT13=
EXTT14=
EXTT15=
PLAYORDER=
